<svg viewBox="0 0 32 32" fill="none" xmlns="http://www.w3.org/2000/svg">
  <rect width="32" height="32" rx="6" fill="#141416"/>
  <path d="M16 4L6 8v7c0 6.72 4.1 13 9.6 14.4.13.03.27.03.4.04l.4-.04C21.9 28 26 21.72 26 15V8L16 4z" stroke="#6CFF32" stroke-width="1.6" stroke-linejoin="round" fill="none"/>
  <path d="M16 10v3.5" stroke="#6CFF32" stroke-width="1.5" stroke-linecap="round"/>
  <path d="M16 13.5l-3.5 3.5v2.5" stroke="#6CFF32" stroke-width="1.5" stroke-linecap="round" stroke-linejoin="round"/>
  <path d="M16 13.5l3.5 3.5v2.5" stroke="#6CFF32" stroke-width="1.5" stroke-linecap="round" stroke-linejoin="round"/>
  <circle cx="16" cy="13.5" r="1.6" fill="#6CFF32"/>
  <circle cx="12.5" cy="19.5" r="1.2" fill="#6CFF32"/>
  <circle cx="19.5" cy="19.5" r="1.2" fill="#6CFF32"/>
  <circle cx="16" cy="10" r="1.2" fill="#6CFF32"/>
  <path d="M12.5 19.5l-1.5 2.5" stroke="#6CFF32" stroke-width="1" stroke-linecap="round"/>
  <path d="M19.5 19.5l1.5 2.5" stroke="#6CFF32" stroke-width="1" stroke-linecap="round"/>
  <circle cx="11" cy="22" r="0.8" fill="#6CFF32"/>
  <circle cx="21" cy="22" r="0.8" fill="#6CFF32"/>
</svg>
